0
SECTION
2
ENTITIES
0
LWPOLYLINE
8
PCDC
90
7
70
1
10
79.0
20
23.0
10
79.0
20
22.0
10
77.0
20
20.0
10
76.0
20
20.0
10
79.0
20
20.0
10
80.0
20
21.0
10
80.0
20
23.0
0
LWPOLYLINE
8
PCDC
90
7
70
1
10
13.0
20
46.0
10
13.0
20
45.0
10
12.0
20
44.0
10
16.0
20
44.0
10
15.0
20
44.0
10
14.0
20
45.0
10
14.0
20
46.0
0
LWPOLYLINE
8
PCDC
90
16
70
1
10
12.0
20
43.0
10
11.0
20
42.0
10
9.0
20
42.0
10
9.0
20
35.0
10
13.0
20
35.0
10
13.0
20
36.0
10
14.0
20
37.0
10
15.0
20
37.0
10
16.0
20
38.0
10
16.0
20
39.0
10
17.0
20
40.0
10
18.0
20
40.0
10
18.0
20
41.0
10
17.0
20
42.0
10
16.0
20
42.0
10
15.0
20
43.0
0
LWPOLYLINE
8
PCDC
90
7
70
1
10
65.0
20
34.0
10
65.0
20
27.0
10
71.0
20
27.0
10
72.0
20
26.0
10
73.0
20
27.0
10
72.0
20
28.0
10
72.0
20
34.0
0
LWPOLYLINE
8
PCDC
90
6
70
1
10
41.0
20
51.0
10
41.0
20
45.0
10
40.0
20
44.0
10
41.0
20
43.0
10
48.0
20
43.0
10
48.0
20
51.0
0
LWPOLYLINE
8
PCDC
90
7
70
1
10
90.0
20
14.0
10
90.0
20
11.0
10
87.0
20
8.0
10
82.0
20
8.0
10
81.0
20
7.0
10
81.0
20
1.0
10
90.0
20
1.0
0
LWPOLYLINE
8
PCDC
90
4
70
1
10
20.0
20
51.0
10
26.0
20
51.0
10
27.0
20
50.0
10
27.0
20
51.0
0
LWPOLYLINE
8
PCDC
90
12
70
1
10
8.0
20
18.0
10
5.0
20
15.0
10
5.0
20
8.0
10
11.0
20
8.0
10
12.0
20
9.0
10
12.0
20
10.0
10
13.0
20
11.0
10
13.0
20
12.0
10
14.0
20
13.0
10
14.0
20
14.0
10
16.0
20
16.0
10
16.0
20
18.0
0
LWPOLYLINE
8
PCDC
90
4
70
1
10
68.0
20
10.0
10
68.0
20
9.0
10
69.0
20
9.0
10
69.0
20
10.0
0
LWPOLYLINE
8
PCDC
90
6
70
1
10
3.0
20
16.0
10
2.0
20
15.0
10
0.0
20
15.0
10
0.0
20
11.0
10
4.0
20
11.0
10
4.0
20
15.0
0
LWPOLYLINE
8
PCDC
90
10
70
1
10
90.0
20
27.0
10
89.0
20
26.0
10
81.0
20
26.0
10
81.0
20
18.0
10
82.0
20
17.0
10
86.0
20
17.0
10
87.0
20
16.0
10
88.0
20
16.0
10
89.0
20
15.0
10
90.0
20
15.0
0
LWPOLYLINE
8
PCDC
90
6
70
1
10
48.0
20
10.0
10
49.0
20
9.0
10
49.0
20
1.0
10
56.0
20
1.0
10
56.0
20
9.0
10
57.0
20
10.0
0
LWPOLYLINE
8
PCDC
90
10
70
1
10
73.0
20
26.0
10
73.0
20
22.0
10
75.0
20
22.0
10
76.0
20
21.0
10
77.0
20
21.0
10
78.0
20
22.0
10
78.0
20
23.0
10
79.0
20
24.0
10
80.0
20
24.0
10
80.0
20
26.0
0
LWPOLYLINE
8
PCDC
90
7
70
1
10
49.0
20
18.0
10
49.0
20
17.0
10
48.0
20
16.0
10
49.0
20
15.0
10
49.0
20
11.0
10
56.0
20
11.0
10
56.0
20
18.0
0
LWPOLYLINE
8
PCDC
90
12
70
1
10
17.0
20
18.0
10
17.0
20
16.0
10
18.0
20
16.0
10
19.0
20
15.0
10
19.0
20
14.0
10
20.0
20
13.0
10
20.0
20
11.0
10
21.0
20
10.0
10
21.0
20
9.0
10
22.0
20
8.0
10
24.0
20
8.0
10
24.0
20
18.0
0
LWPOLYLINE
8
PCDC
90
4
70
1
10
49.0
20
26.0
10
49.0
20
19.0
10
56.0
20
19.0
10
56.0
20
26.0
0
LWPOLYLINE
8
PCDC
90
7
70
1
10
57.0
20
34.0
10
57.0
20
27.0
10
60.0
20
27.0
10
61.0
20
26.0
10
62.0
20
27.0
10
64.0
20
27.0
10
64.0
20
34.0
0
LWPOLYLINE
8
PCDC
90
11
70
1
10
40.0
20
18.0
10
38.0
20
16.0
10
39.0
20
15.0
10
38.0
20
14.0
10
38.0
20
13.0
10
40.0
20
11.0
10
48.0
20
11.0
10
48.0
20
15.0
10
47.0
20
16.0
10
48.0
20
17.0
10
48.0
20
18.0
0
LWPOLYLINE
8
PCDC
90
11
70
1
10
48.0
20
42.0
10
48.0
20
36.0
10
47.0
20
35.0
10
49.0
20
33.0
10
49.0
20
34.0
10
50.0
20
35.0
10
55.0
20
35.0
10
55.0
20
42.0
10
51.0
20
42.0
10
50.0
20
41.0
10
49.0
20
42.0
0
LWPOLYLINE
8
PCDC
90
6
70
1
10
50.0
20
34.0
10
50.0
20
33.0
10
49.0
20
32.0
10
49.0
20
27.0
10
56.0
20
27.0
10
56.0
20
34.0
0
LWPOLYLINE
8
PCDC
90
9
70
1
10
17.0
20
38.0
10
15.0
20
36.0
10
15.0
20
35.0
10
17.0
20
35.0
10
16.0
20
36.0
10
17.0
20
37.0
10
18.0
20
37.0
10
19.0
20
38.0
10
18.0
20
37.0
0
LWPOLYLINE
8
PCDC
90
9
70
1
10
83.0
20
16.0
10
84.0
20
15.0
10
86.0
20
15.0
10
87.0
20
14.0
10
87.0
20
11.0
10
85.0
20
9.0
10
82.0
20
9.0
10
81.0
20
10.0
10
81.0
20
14.0
0
LWPOLYLINE
8
PCDC
90
10
70
1
10
80.0
20
16.0
10
80.0
20
5.0
10
80.0
20
7.0
10
82.0
20
9.0
10
87.0
20
9.0
10
89.0
20
11.0
10
89.0
20
14.0
10
88.0
20
15.0
10
87.0
20
15.0
10
86.0
20
16.0
0
LWPOLYLINE
8
PCDC
90
8
70
1
10
16.0
20
13.0
10
16.0
20
12.0
10
15.0
20
11.0
10
15.0
20
10.0
10
14.0
20
9.0
10
16.0
20
9.0
10
17.0
20
10.0
10
16.0
20
11.0
0
LWPOLYLINE
8
PCDC
90
12
70
1
10
32.0
20
16.0
10
31.0
20
15.0
10
30.0
20
15.0
10
29.0
20
14.0
10
30.0
20
14.0
10
31.0
20
15.0
10
32.0
20
15.0
10
33.0
20
16.0
10
35.0
20
16.0
10
36.0
20
15.0
10
38.0
20
15.0
10
37.0
20
16.0
0
LWPOLYLINE
8
PCDC
90
9
70
1
10
7.0
20
49.0
10
6.0
20
48.0
10
6.0
20
47.0
10
7.0
20
47.0
10
8.0
20
46.0
10
8.0
20
45.0
10
8.0
20
47.0
10
7.0
20
48.0
10
8.0
20
49.0
0
LWPOLYLINE
8
PCDC
90
5
70
1
10
41.0
20
10.0
10
41.0
20
1.0
10
48.0
20
1.0
10
48.0
20
9.0
10
47.0
20
10.0
0
LWPOLYLINE
8
PCDC
90
9
70
1
10
73.0
20
8.0
10
72.0
20
7.0
10
71.0
20
7.0
10
72.0
20
6.0
10
72.0
20
5.0
10
73.0
20
4.0
10
74.0
20
4.0
10
74.0
20
6.0
10
73.0
20
7.0
0
LWPOLYLINE
8
PCDC
90
3
70
1
10
80.0
20
20.0
10
79.0
20
19.0
10
80.0
20
19.0
0
LWPOLYLINE
8
PCDC
90
5
70
1
10
73.0
20
21.0
10
73.0
20
19.0
10
76.0
20
19.0
10
75.0
20
20.0
10
75.0
20
21.0
0
LWPOLYLINE
8
PCDC
90
13
70
1
10
25.0
20
18.0
10
25.0
20
8.0
10
26.0
20
8.0
10
26.0
20
12.0
10
27.0
20
13.0
10
27.0
20
14.0
10
28.0
20
15.0
10
29.0
20
15.0
10
30.0
20
16.0
10
31.0
20
16.0
10
32.0
20
17.0
10
33.0
20
17.0
10
32.0
20
18.0
0
LWPOLYLINE
8
PCDC
90
2
70
1
10
14.0
20
36.0
10
14.0
20
34.0
0
LWPOLYLINE
8
PCDC
90
8
70
1
10
67.0
20
10.0
10
68.0
20
11.0
10
69.0
20
11.0
10
70.0
20
10.0
10
70.0
20
9.0
10
69.0
20
8.0
10
68.0
20
8.0
10
67.0
20
9.0
0
LWPOLYLINE
8
PCDC
90
25
70
1
10
68.0
20
16.0
10
67.0
20
15.0
10
67.0
20
14.0
10
66.0
20
13.0
10
66.0
20
12.0
10
65.0
20
11.0
10
65.0
20
10.0
10
64.0
20
9.0
10
64.0
20
8.0
10
63.0
20
7.0
10
63.0
20
6.0
10
62.0
20
5.0
10
63.0
20
4.0
10
63.0
20
5.0
10
64.0
20
6.0
10
64.0
20
7.0
10
65.0
20
8.0
10
72.0
20
8.0
10
72.0
20
10.0
10
71.0
20
11.0
10
71.0
20
12.0
10
70.0
20
13.0
10
70.0
20
14.0
10
69.0
20
15.0
10
69.0
20
16.0
0
LWPOLYLINE
8
PCDC
90
2
70
1
10
12.0
20
46.0
10
12.0
20
45.0
0
LWPOLYLINE
8
PCDC
90
30
70
1
10
9.0
20
51.0
10
12.0
20
51.0
10
13.0
20
50.0
10
13.0
20
49.0
10
12.0
20
48.0
10
14.0
20
48.0
10
13.0
20
49.0
10
14.0
20
50.0
10
15.0
20
50.0
10
16.0
20
51.0
10
18.0
20
51.0
10
19.0
20
50.0
10
22.0
20
50.0
10
23.0
20
49.0
10
24.0
20
49.0
10
25.0
20
48.0
10
26.0
20
48.0
10
27.0
20
47.0
10
28.0
20
47.0
10
29.0
20
48.0
10
30.0
20
47.0
10
34.0
20
47.0
10
32.0
20
47.0
10
31.0
20
48.0
10
29.0
20
48.0
10
28.0
20
49.0
10
27.0
20
49.0
10
26.0
20
50.0
10
20.0
20
50.0
10
19.0
20
51.0
0
LWPOLYLINE
8
PCDC
90
14
70
1
10
9.0
20
47.0
10
9.0
20
45.0
10
8.0
20
44.0
10
7.0
20
45.0
10
7.0
20
46.0
10
6.0
20
45.0
10
5.0
20
45.0
10
6.0
20
44.0
10
6.0
20
43.0
10
7.0
20
42.0
10
8.0
20
42.0
10
9.0
20
43.0
10
11.0
20
43.0
10
11.0
20
47.0
0
LWPOLYLINE
8
PCDC
90
14
70
1
10
49.0
20
51.0
10
49.0
20
43.0
10
50.0
20
42.0
10
51.0
20
43.0
10
55.0
20
43.0
10
56.0
20
42.0
10
56.0
20
35.0
10
72.0
20
35.0
10
73.0
20
34.0
10
73.0
20
28.0
10
74.0
20
27.0
10
89.0
20
27.0
10
90.0
20
28.0
10
90.0
20
51.0
0
LWPOLYLINE
8
PCDC
90
14
70
1
10
19.0
20
41.0
10
19.0
20
40.0
10
18.0
20
39.0
10
17.0
20
39.0
10
18.0
20
38.0
10
19.0
20
39.0
10
20.0
20
39.0
10
21.0
20
40.0
10
22.0
20
39.0
10
25.0
20
39.0
10
24.0
20
39.0
10
22.0
20
41.0
10
21.0
20
40.0
10
20.0
20
40.0
0
LWPOLYLINE
8
PCDC
90
61
70
1
10
28.0
20
51.0
10
28.0
20
50.0
10
29.0
20
49.0
10
31.0
20
49.0
10
32.0
20
48.0
10
34.0
20
48.0
10
35.0
20
47.0
10
34.0
20
46.0
10
30.0
20
46.0
10
29.0
20
47.0
10
28.0
20
46.0
10
27.0
20
46.0
10
26.0
20
47.0
10
25.0
20
47.0
10
24.0
20
48.0
10
23.0
20
48.0
10
22.0
20
49.0
10
19.0
20
49.0
10
18.0
20
50.0
10
16.0
20
50.0
10
15.0
20
49.0
10
14.0
20
49.0
10
15.0
20
48.0
10
14.0
20
47.0
10
12.0
20
47.0
10
14.0
20
47.0
10
15.0
20
46.0
10
15.0
20
45.0
10
16.0
20
45.0
10
17.0
20
44.0
10
16.0
20
43.0
10
17.0
20
43.0
10
18.0
20
42.0
10
19.0
20
42.0
10
20.0
20
41.0
10
21.0
20
41.0
10
22.0
20
42.0
10
24.0
20
40.0
10
25.0
20
40.0
10
26.0
20
39.0
10
25.0
20
38.0
10
22.0
20
38.0
10
21.0
20
39.0
10
20.0
20
38.0
10
21.0
20
38.0
10
23.0
20
36.0
10
25.0
20
36.0
10
26.0
20
35.0
10
28.0
20
35.0
10
29.0
20
34.0
10
30.0
20
34.0
10
31.0
20
35.0
10
32.0
20
35.0
10
33.0
20
36.0
10
32.0
20
37.0
10
32.0
20
40.0
10
31.0
20
41.0
10
34.0
20
44.0
10
39.0
20
44.0
10
40.0
20
45.0
10
40.0
20
51.0
0
LWPOLYLINE
8
PCDC
90
5
70
1
10
41.0
20
34.0
10
41.0
20
19.0
10
48.0
20
19.0
10
48.0
20
33.0
10
47.0
20
34.0
0
LWPOLYLINE
8
PCDC
90
20
70
1
10
0.0
20
51.0
10
0.0
20
48.0
10
2.0
20
48.0
10
3.0
20
47.0
10
2.0
20
46.0
10
3.0
20
45.0
10
4.0
20
45.0
10
5.0
20
46.0
10
6.0
20
46.0
10
5.0
20
47.0
10
5.0
20
48.0
10
7.0
20
50.0
10
8.0
20
50.0
10
9.0
20
49.0
10
8.0
20
48.0
10
11.0
20
48.0
10
12.0
20
49.0
10
12.0
20
50.0
10
9.0
20
50.0
10
8.0
20
51.0
0
LWPOLYLINE
8
PCDC
90
12
70
1
10
57.0
20
26.0
10
57.0
20
11.0
10
64.0
20
11.0
10
65.0
20
12.0
10
65.0
20
13.0
10
66.0
20
14.0
10
66.0
20
16.0
10
64.0
20
18.0
10
64.0
20
26.0
10
62.0
20
26.0
10
61.0
20
25.0
10
60.0
20
26.0
0
LWPOLYLINE
8
PCDC
90
8
70
1
10
19.0
20
35.0
10
18.0
20
34.0
10
17.0
20
34.0
10
17.0
20
19.0
10
24.0
20
19.0
10
24.0
20
34.0
10
22.0
20
34.0
10
21.0
20
35.0
0
LWPOLYLINE
8
PCDC
90
9
70
1
10
33.0
20
35.0
10
34.0
20
34.0
10
33.0
20
33.0
10
33.0
20
18.0
10
34.0
20
17.0
10
38.0
20
17.0
10
40.0
20
19.0
10
40.0
20
34.0
10
39.0
20
35.0
0
LWPOLYLINE
8
PCDC
90
21
70
1
10
0.0
20
47.0
10
0.0
20
16.0
10
2.0
20
16.0
10
3.0
20
17.0
10
4.0
20
16.0
10
5.0
20
16.0
10
8.0
20
19.0
10
16.0
20
19.0
10
16.0
20
34.0
10
15.0
20
34.0
10
14.0
20
33.0
10
13.0
20
34.0
10
9.0
20
34.0
10
8.0
20
35.0
10
8.0
20
41.0
10
7.0
20
41.0
10
5.0
20
43.0
10
5.0
20
44.0
10
3.0
20
44.0
10
1.0
20
46.0
10
2.0
20
47.0
0
LWPOLYLINE
8
PCDC
90
14
70
1
10
19.0
20
37.0
10
18.0
20
36.0
10
17.0
20
36.0
10
18.0
20
35.0
10
19.0
20
36.0
10
21.0
20
36.0
10
22.0
20
35.0
10
24.0
20
35.0
10
25.0
20
34.0
10
27.0
20
34.0
10
26.0
20
34.0
10
25.0
20
35.0
10
23.0
20
35.0
10
21.0
20
37.0
0
LWPOLYLINE
8
PCDC
90
10
70
1
10
28.0
20
34.0
10
27.0
20
33.0
10
25.0
20
33.0
10
25.0
20
19.0
10
32.0
20
19.0
10
32.0
20
33.0
10
33.0
20
34.0
10
31.0
20
34.0
10
30.0
20
33.0
10
29.0
20
33.0
0
LWPOLYLINE
8
PCDC
90
22
70
1
10
33.0
20
15.0
10
32.0
20
14.0
10
31.0
20
14.0
10
30.0
20
13.0
10
30.0
20
7.0
10
31.0
20
6.0
10
32.0
20
6.0
10
33.0
20
5.0
10
35.0
20
5.0
10
36.0
20
4.0
10
35.0
20
3.0
10
31.0
20
3.0
10
30.0
20
4.0
10
29.0
20
4.0
10
28.0
20
5.0
10
28.0
20
1.0
10
40.0
20
1.0
10
40.0
20
10.0
10
37.0
20
13.0
10
37.0
20
14.0
10
36.0
20
14.0
10
35.0
20
15.0
0
LWPOLYLINE
8
PCDC
90
22
70
1
10
16.0
20
15.0
10
15.0
20
14.0
10
15.0
20
13.0
10
14.0
20
12.0
10
14.0
20
11.0
10
13.0
20
10.0
10
13.0
20
9.0
10
11.0
20
7.0
10
5.0
20
7.0
10
4.0
20
8.0
10
4.0
20
10.0
10
0.0
20
10.0
10
0.0
20
1.0
10
16.0
20
1.0
10
16.0
20
8.0
10
14.0
20
8.0
10
13.0
20
9.0
10
14.0
20
10.0
10
14.0
20
11.0
10
15.0
20
12.0
10
15.0
20
13.0
10
16.0
20
14.0
0
LWPOLYLINE
8
PCDC
90
7
70
1
10
83.0
20
15.0
10
82.0
20
14.0
10
82.0
20
10.0
10
85.0
20
10.0
10
86.0
20
11.0
10
86.0
20
14.0
10
84.0
20
14.0
0
LWPOLYLINE
8
PCDC
90
30
70
1
10
17.0
20
15.0
10
17.0
20
12.0
10
18.0
20
11.0
10
18.0
20
9.0
10
17.0
20
8.0
10
17.0
20
1.0
10
27.0
20
1.0
10
27.0
20
5.0
10
28.0
20
6.0
10
29.0
20
5.0
10
30.0
20
5.0
10
31.0
20
4.0
10
35.0
20
4.0
10
33.0
20
4.0
10
32.0
20
5.0
10
31.0
20
5.0
10
29.0
20
7.0
10
29.0
20
13.0
10
28.0
20
14.0
10
28.0
20
13.0
10
27.0
20
12.0
10
27.0
20
8.0
10
26.0
20
7.0
10
22.0
20
7.0
10
20.0
20
9.0
10
20.0
20
10.0
10
19.0
20
11.0
10
19.0
20
13.0
10
18.0
20
14.0
10
18.0
20
15.0
0
LWPOLYLINE
8
PCDC
90
29
70
1
10
58.0
20
10.0
10
57.0
20
9.0
10
57.0
20
1.0
10
80.0
20
1.0
10
80.0
20
4.0
10
79.0
20
5.0
10
79.0
20
10.0
10
73.0
20
10.0
10
73.0
20
9.0
10
74.0
20
8.0
10
74.0
20
7.0
10
75.0
20
6.0
10
75.0
20
4.0
10
74.0
20
3.0
10
73.0
20
3.0
10
71.0
20
5.0
10
71.0
20
6.0
10
70.0
20
7.0
10
65.0
20
7.0
10
65.0
20
6.0
10
64.0
20
5.0
10
64.0
20
4.0
10
63.0
20
3.0
10
61.0
20
5.0
10
62.0
20
6.0
10
62.0
20
7.0
10
63.0
20
8.0
10
63.0
20
9.0
10
64.0
20
10.0
0
LWPOLYLINE
8
PCDC
90
24
70
1
10
65.0
20
26.0
10
65.0
20
18.0
10
67.0
20
16.0
10
68.0
20
17.0
10
69.0
20
17.0
10
70.0
20
16.0
10
70.0
20
15.0
10
71.0
20
14.0
10
71.0
20
13.0
10
72.0
20
12.0
10
72.0
20
11.0
10
79.0
20
11.0
10
79.0
20
16.0
10
80.0
20
17.0
10
81.0
20
17.0
10
80.0
20
18.0
10
79.0
20
18.0
10
78.0
20
19.0
10
77.0
20
19.0
10
76.0
20
18.0
10
73.0
20
18.0
10
72.0
20
19.0
10
72.0
20
25.0
10
71.0
20
26.0
0
LWPOLYLINE
8
PCDC
90
12
70
1
10
34.0
20
43.0
10
32.0
20
41.0
10
33.0
20
40.0
10
33.0
20
37.0
10
34.0
20
36.0
10
39.0
20
36.0
10
40.0
20
35.0
10
46.0
20
35.0
10
47.0
20
36.0
10
47.0
20
42.0
10
41.0
20
42.0
10
40.0
20
43.0
0
ENDSEC
0
EOF
